<svg id="Layer_1" data-name="Layer 1" xmlns="http://www.w3.org/2000/svg" viewBox="0 0 584.8 287.86">
  <title>SSC-Final-Logo-Lockups</title>
  <g fill="#579aa0">
    <polygon class="cls-1" points="336.98 111.69 336.97 111.69 336.97 147.68 368.21 129.67 368.19 93.53 336.98 75.51 336.98 111.69"/>
    <polygon class="cls-1" points="262.11 154.86 293.31 172.85 324.5 154.87 324.5 118.88 262.11 154.86"/>
    <polygon class="cls-1" points="368.18 79.12 368.15 43.21 336.98 25.21 305.89 43.15 368.18 79.12"/>
    <polygon class="cls-1" points="262.13 68.42 262.13 104.43 293.32 122.44 324.5 104.48 324.5 68.42 293.31 50.42 262.13 68.42"/>
    <polygon class="cls-1" points="218.44 93.62 218.42 129.67 249.62 147.66 280.86 129.65 218.44 93.62"/>
    <polygon class="cls-1" points="249.65 25.21 218.47 43.21 218.45 79.22 249.65 97.23 249.65 25.21"/>
    <polygon class="cls-1" points="293.31 36.01 293.31 36.01 324.5 18.01 293.31 0 262.12 18.01 262.13 54.02 293.31 36.01"/>
  </g>
  <g fill="#fff">
    <path class="cls-1" d="M0,265l3.86-5.05A21,21,0,0,0,20,267.49c9.18,0,12.12-5.05,12.12-9.16,0-13.58-30.48-6-30.48-24.79,0-8.68,7.56-14.69,17.75-14.69,7.79,0,13.89,2.76,18.21,7.42l-3.86,4.82c-3.86-4.42-9.26-6.32-14.9-6.32-6.1,0-10.57,3.39-10.57,8.37,0,11.84,30.48,5.05,30.48,24.71,0,7.58-5.09,15.47-19,15.47C10.88,273.33,4.24,269.86,0,265Z"/>
    <path class="cls-1" d="M44,253.28c0-11.05,7.72-20,18.37-20,11.27,0,17.9,9,17.9,20.45v1.5H50.16c.46,7.19,5.33,13.19,13.35,13.19a16,16,0,0,0,11.58-4.9l2.78,3.87A20.31,20.31,0,0,1,63,273.33C51.94,273.33,44,265.2,44,253.28ZM62.28,238.2c-7.95,0-11.89,6.87-12.19,12.63H74.55C74.47,245.23,70.77,238.2,62.28,238.2Z"/>
    <path class="cls-1" d="M85.5,253.28c0-11.29,7.49-20,18.6-20,6.79,0,10.8,2.84,13.66,6.63l-3.86,3.55a10.9,10.9,0,0,0-9.49-4.9c-7.87,0-12.89,6.24-12.89,14.69s5,14.76,12.89,14.76a11.16,11.16,0,0,0,9.49-5l3.86,3.63c-2.86,3.79-6.87,6.63-13.66,6.63C93,273.33,85.5,264.57,85.5,253.28Z"/>
    <path class="cls-1" d="M149.17,272.39V267a18.07,18.07,0,0,1-13.27,6.32c-7.79,0-11.88-3.95-11.88-12.16V234.25h5.79v25.11c0,6.71,3.32,8.69,8.41,8.69a14.14,14.14,0,0,0,11-5.76v-28H155v38.14Z"/>
    <path class="cls-1" d="M164.61,272.39V234.25h5.79v6.08c3-3.95,7.33-6.95,12.43-6.95v6.08a18.62,18.62,0,0,0-2.24-.16c-3.63,0-8.49,3-10.19,6.08v27Z"/>
    <path class="cls-1" d="M187.14,224.85a4,4,0,0,1,3.94-4,3.93,3.93,0,0,1,3.86,4,3.87,3.87,0,0,1-3.86,3.95A3.93,3.93,0,0,1,187.14,224.85Zm1,47.53V234.25h5.79v38.14Z"/>
    <path class="cls-1" d="M204.73,264.41V239.46h-6.17v-5.21h6.17V223.83h5.87v10.42h7.56v5.21H210.6v23.69c0,2.84,1.24,4.9,3.7,4.9a5.42,5.42,0,0,0,3.94-1.66l1.7,4.5a9.27,9.27,0,0,1-6.87,2.45C207.51,273.33,204.73,270.1,204.73,264.41Z"/>
    <path class="cls-1" d="M226.26,281.94a8.7,8.7,0,0,0,3.16.63c2.55,0,4.24-.87,5.56-4l2.47-5.76-15.59-38.53h6.33l12.35,31.27L253,234.25h6.25l-18.68,45.87c-2.24,5.53-6,7.66-11,7.74a17.2,17.2,0,0,1-4.17-.55Z"/>
    <path class="cls-1" d="M266.62,265l3.86-5.05a21,21,0,0,0,16.13,7.58c9.18,0,12.12-5.05,12.12-9.16,0-13.58-30.48-6-30.48-24.79,0-8.68,7.56-14.69,17.75-14.69,7.79,0,13.89,2.76,18.21,7.42l-3.86,4.82c-3.86-4.42-9.26-6.32-14.89-6.32-6.1,0-10.57,3.39-10.57,8.37,0,11.84,30.48,5.05,30.48,24.71,0,7.58-5.09,15.47-19,15.47C277.5,273.33,270.87,269.86,266.62,265Z"/>
    <path class="cls-1" d="M310.61,253.28c0-11.29,7.49-20,18.6-20,6.79,0,10.8,2.84,13.66,6.63L339,243.49a10.9,10.9,0,0,0-9.49-4.9c-7.87,0-12.89,6.24-12.89,14.69s5,14.76,12.89,14.76a11.16,11.16,0,0,0,9.49-5l3.86,3.63c-2.86,3.79-6.87,6.63-13.66,6.63C318.1,273.33,310.61,264.57,310.61,253.28Z"/>
    <path class="cls-1" d="M345.41,253.28c0-11.05,7.1-20,18.44-20s18.44,8.92,18.44,20-7.1,20.05-18.44,20.05S345.41,264.33,345.41,253.28Zm30.79,0c0-7.74-4.4-14.69-12.35-14.69s-12.35,6.95-12.35,14.69S355.91,268,363.86,268,376.21,261.09,376.21,253.28Z"/>
    <path class="cls-1" d="M388.24,272.39V234.25H394v6.08c3-3.95,7.33-6.95,12.43-6.95v6.08a18.63,18.63,0,0,0-2.24-.16c-3.63,0-8.49,3-10.19,6.08v27Z"/>
    <path class="cls-1" d="M409.62,253.28c0-11.05,7.72-20,18.37-20,11.27,0,17.9,9,17.9,20.45v1.5h-30.1c.46,7.19,5.32,13.19,13.35,13.19a16,16,0,0,0,11.58-4.9l2.78,3.87a20.31,20.31,0,0,1-14.82,5.92C417.57,273.33,409.62,265.2,409.62,253.28Zm18.29-15.08c-7.95,0-11.89,6.87-12.19,12.63h24.46C440.1,245.23,436.4,238.2,427.91,238.2Z"/>
    <path class="cls-1" d="M451.14,253.28c0-11.29,7.49-20,18.6-20,6.79,0,10.8,2.84,13.66,6.63l-3.86,3.55a10.9,10.9,0,0,0-9.49-4.9c-7.87,0-12.89,6.24-12.89,14.69S462.17,268,470,268a11.16,11.16,0,0,0,9.49-5l3.86,3.63c-2.86,3.79-6.87,6.63-13.66,6.63C458.62,273.33,451.14,264.57,451.14,253.28Z"/>
    <path class="cls-1" d="M514.49,272.39V268a15.84,15.84,0,0,1-12.35,5.29c-6.25,0-13-4.34-13-12.63,0-8.61,6.64-12.55,13-12.55,5.09,0,9.34,1.66,12.35,5.13v-6.87c0-5.05-4-8-9.42-8a14.42,14.42,0,0,0-11.42,5.29l-2.7-4.11a19.3,19.3,0,0,1,14.89-6.32c7.95,0,14.43,3.63,14.43,12.87v26.21Zm0-8.05v-7.26c-2.24-3.08-6.17-4.66-10.19-4.66-5.48,0-9.26,3.47-9.26,8.29s3.78,8.37,9.26,8.37C508.32,269.07,512.26,267.49,514.49,264.33Z"/>
    <path class="cls-1" d="M528.46,272.39V234.25h5.79v6.08c3-3.95,7.33-6.95,12.43-6.95v6.08a18.63,18.63,0,0,0-2.24-.16c-3.63,0-8.49,3-10.19,6.08v27Z"/>
    <path class="cls-1" d="M579,272.39V266.7a15.59,15.59,0,0,1-12.58,6.63c-9.72,0-16.59-7.58-16.59-20,0-12.24,6.87-20.05,16.59-20.05A15.48,15.48,0,0,1,579,240V219.72h5.79v52.66ZM579,262V244.75a13.77,13.77,0,0,0-11.11-6.16c-7.56,0-12,6.32-12,14.76s4.48,14.69,12,14.69A13.7,13.7,0,0,0,579,262Z"/>
  </g>
</svg>
